<?xml version="1.0" encoding="utf-8"?>
<!-- Generator: Adobe Illustrator 18.0.0, SVG Export Plug-In . SVG Version: 6.00 Build 0)  -->
<!DOCTYPE svg PUBLIC "-//W3C//DTD SVG 1.1//EN" "http://www.w3.org/Graphics/SVG/1.1/DTD/svg11.dtd">
<svg version="1.1" id="Layer_1" xmlns="http://www.w3.org/2000/svg" xmlns:xlink="http://www.w3.org/1999/xlink" x="0px" y="0px"
	 viewBox="84.8 9.7 30.5 179.6" enable-background="new 84.8 9.7 30.5 179.6" xml:space="preserve">
<rect x="84.8" y="9.7" opacity="0.5" fill="#54A3DA" enable-background="new    " width="17.4" height="179.6"/>
<rect x="102.1" y="9.7" opacity="0.5" fill="#2FA270" enable-background="new    " width="13.1" height="179.6"/>
<text transform="matrix(1 0 0 1 105.3085 11.4021)" fill="#FFFFFF" font-family="'HelvNeueBoldforIBM'" font-size="1.313">Developer</text>
<text transform="matrix(1 0 0 1 92.2233 11.4021)" fill="#FFFFFF" font-family="'HelvNeueBoldforIBM'" font-size="1.313">SME</text>
<path fill="#FFFFFF" d="M93.2,44.6v-6.2c0-0.2,0.1-0.3,0.3-0.3h3.1c0.2,0,0.3,0.1,0.3,0.3v6.2c0,0.2-0.1,0.3-0.3,0.3h-3.1
	C93.4,44.9,93.2,44.7,93.2,44.6z"/>
<g>
	<rect x="94" y="38.5" fill="none" width="1.9" height="5.9"/>
	
		<text transform="matrix(4.489659e-11 1 -1 4.489659e-11 95.4369 38.4962)" fill="#54A3DA" font-family="'HelvNeueMediumforIBM'" font-size="0.6491">Signs up for an </text>
	
		<text transform="matrix(4.489659e-11 1 -1 4.489659e-11 94.6572 38.4962)" fill="#54A3DA" font-family="'HelvNeueMediumforIBM'" font-size="0.6491">IBM id</text>
</g>
<circle fill="#FFFFFF" cx="108.4" cy="154.4" r="1.9"/>
<g>
	<rect x="106.8" y="152.7" fill="none" width="1.7" height="3.3"/>
	
		<text transform="matrix(4.489659e-11 1 -1 4.489659e-11 108.0979 153.6142)" fill="#2FA270" font-family="'HelvNeueMediumforIBM'" font-size="0.6491">Done </text>
</g>
<path fill="#FFFFFF" d="M93.3,36v-6.2c0-0.2,0.1-0.3,0.3-0.3h3.1c0.2,0,0.3,0.1,0.3,0.3V36c0,0.2-0.1,0.3-0.3,0.3h-3.1
	C93.4,36.3,93.3,36.2,93.3,36z"/>
<g>
	<rect x="93.8" y="30.1" fill="none" width="2.6" height="5.7"/>
	
		<text transform="matrix(4.489659e-11 1 -1 4.489659e-11 95.8587 30.0703)" fill="#54A3DA" font-family="'HelvNeueMediumforIBM'" font-size="0.6491">Finds out that </text>
	
		<text transform="matrix(4.489659e-11 1 -1 4.489659e-11 95.079 30.0703)" fill="#54A3DA" font-family="'HelvNeueMediumforIBM'" font-size="0.6491">models can be </text>
	
		<text transform="matrix(4.489659e-11 1 -1 4.489659e-11 94.2994 30.0703)" fill="#54A3DA" font-family="'HelvNeueMediumforIBM'" font-size="0.6491">configured</text>
	
		<text transform="matrix(4.489659e-11 1 -1 4.489659e-11 93.8334 30.0703)" fill="#3FA9F5" font-family="'HelvNeueMediumforIBM'" font-size="0.3895">(WDC website)</text>
</g>
<path fill="#FFFFFF" d="M93.2,53.2V47c0-0.2,0.1-0.3,0.3-0.3h3.1c0.2,0,0.3,0.1,0.3,0.3v6.2c0,0.2-0.1,0.3-0.3,0.3h-3.1
	C93.4,53.5,93.2,53.4,93.2,53.2z"/>
<g>
	<rect x="94" y="47.1" fill="none" width="1.9" height="5.9"/>
	
		<text transform="matrix(4.489659e-11 1 -1 4.489659e-11 95.4369 47.1293)" fill="#54A3DA" font-family="'HelvNeueMediumforIBM'" font-size="0.6491">Logs in to </text>
	
		<text transform="matrix(4.489659e-11 1 -1 4.489659e-11 94.6572 47.1293)" fill="#54A3DA" font-family="'HelvNeueMediumforIBM'" font-size="0.6491">configuration tool</text>
</g>
<line fill="none" stroke="#FFFFFF" stroke-width="5" stroke-miterlimit="10" x1="95.2" y1="44.9" x2="95.2" y2="46.7"/>
<path fill="#FFFFFF" d="M93.2,61.8v-6.2c0-0.2,0.1-0.3,0.3-0.3h3.1c0.2,0,0.3,0.1,0.3,0.3v6.2c0,0.2-0.1,0.3-0.3,0.3h-3.1
	C93.4,62.1,93.2,62,93.2,61.8z"/>
<g>
	<rect x="94" y="55.8" fill="none" width="1.9" height="5.9"/>
	
		<text transform="matrix(4.489659e-11 1 -1 4.489659e-11 95.4369 55.7633)" fill="#54A3DA" font-family="'HelvNeueMediumforIBM'" font-size="0.6491">Selects a domain for </text>
	
		<text transform="matrix(4.489659e-11 1 -1 4.489659e-11 94.6572 55.7633)" fill="#54A3DA" font-family="'HelvNeueMediumforIBM'" font-size="0.6491">a base model</text>
</g>
<line fill="none" stroke="#FFFFFF" stroke-width="5" stroke-miterlimit="10" x1="95.2" y1="53.6" x2="95.2" y2="55.3"/>
<path fill="#FFFFFF" d="M93.2,70.5v-6.2c0-0.2,0.1-0.3,0.3-0.3h3.1c0.2,0,0.3,0.1,0.3,0.3v6.2c0,0.2-0.1,0.3-0.3,0.3h-3.1
	C93.4,70.8,93.2,70.6,93.2,70.5z"/>
<g>
	<rect x="94" y="64.4" fill="none" width="1.9" height="5.9"/>
	
		<text transform="matrix(4.489659e-11 1 -1 4.489659e-11 95.4369 64.3963)" fill="#54A3DA" font-family="'HelvNeueMediumforIBM'" font-size="0.6491">Selects source and </text>
	
		<text transform="matrix(4.489659e-11 1 -1 4.489659e-11 94.6572 64.3963)" fill="#54A3DA" font-family="'HelvNeueMediumforIBM'" font-size="0.6491">target languages</text>
</g>
<line fill="none" stroke="#FFFFFF" stroke-width="5" stroke-miterlimit="10" x1="95.2" y1="62.2" x2="95.2" y2="63.9"/>
<path fill="#FFFFFF" d="M93.2,79.1v-6.2c0-0.2,0.1-0.3,0.3-0.3h3.1c0.2,0,0.3,0.1,0.3,0.3v6.2c0,0.2-0.1,0.3-0.3,0.3h-3.1
	C93.3,79.4,93.2,79.3,93.2,79.1z"/>
<g>
	<rect x="94" y="73.1" fill="none" width="1.8" height="5.7"/>
	
		<text transform="matrix(4.489659e-11 1 -1 4.489659e-11 95.3041 73.1405)" fill="#54A3DA" font-family="'HelvNeueMediumforIBM'" font-size="0.6491">Tests MT model</text>
</g>
<line fill="none" stroke="#FFFFFF" stroke-width="5" stroke-miterlimit="10" x1="95.1" y1="79.5" x2="95.1" y2="81.1"/>
<path fill="#FFFFFF" d="M93.1,82.7l1.6-1.6c0.2-0.2,0.4-0.2,0.6,0l1.6,1.6c0.2,0.2,0.2,0.4,0,0.6L95.3,85c-0.2,0.2-0.4,0.2-0.6,0
	l-1.6-1.6C92.9,83.2,92.9,82.9,93.1,82.7z"/>
<rect x="93.6" y="81.4" fill="none" width="2.1" height="3.3"/>
<text transform="matrix(4.489659e-11 1 -1 4.489659e-11 95.2447 81.8216)" fill="#54A3DA" font-family="'HelvNeueMediumforIBM'" font-size="0.6491">Satisfies</text>
<text transform="matrix(4.489659e-11 1 -1 4.489659e-11 94.4661 81.5947)" fill="#54A3DA" font-family="'HelvNeueMediumforIBM'" font-size="0.6491">use case?</text>
<g>
	<g>
		<line fill="none" stroke="#FFFFFF" stroke-width="5" stroke-miterlimit="10" x1="95" y1="85" x2="95" y2="86.1"/>
		<g>
			<polygon fill="#FFFFFF" points="94.5,85.9 95,86.8 95.5,85.9 			"/>
		</g>
	</g>
</g>
<rect x="95" y="85" fill="none" width="0.7" height="1.1"/>
<text transform="matrix(4.489659e-11 1 -1 4.489659e-11 95.2946 85.149)" fill="#FFFFFF" font-family="'HelvNeueMediumforIBM'" font-size="0.5555">No</text>
<rect x="98.1" y="83.5" fill="none" width="0.4" height="0.9"/>
<text transform="matrix(4.489659e-11 1 -1 4.489659e-11 98.1768 83.4684)" fill="#FFFFFF" font-family="'HelvNeueMediumforIBM'" font-size="0.5555">Ye</text>
<line fill="none" stroke="#FFFFFF" stroke-width="5" stroke-miterlimit="10" x1="95.2" y1="70.8" x2="95.2" y2="72.6"/>
<path fill="#FFFFFF" d="M106.6,149.3v-6.2c0-0.2,0.1-0.3,0.3-0.3h3.1c0.2,0,0.3,0.1,0.3,0.3v6.2c0,0.2-0.1,0.3-0.3,0.3h-3.1
	C106.7,149.6,106.6,149.5,106.6,149.3z"/>
<rect x="107.3" y="143.4" fill="none" width="2.1" height="6.4"/>
<text transform="matrix(4.489659e-11 1 -1 4.489659e-11 108.9876 143.3758)" fill="#2FA270" font-family="'HelvNeueMediumforIBM'" font-size="0.6491">Accesses SID and </text>
<text transform="matrix(4.489659e-11 1 -1 4.489659e-11 108.208 143.3758)" fill="#2FA270" font-family="'HelvNeueMediumforIBM'" font-size="0.6491">uses it in the app </text>
<text transform="matrix(4.489659e-11 1 -1 4.489659e-11 107.4284 143.3758)" fill="#2FA270" font-family="'HelvNeueMediumforIBM'" font-size="0.6491">code</text>
<path fill="#FFFFFF" d="M93.2,93.3v-6.2c0-0.2,0.1-0.3,0.3-0.3h3.1c0.2,0,0.3,0.1,0.3,0.3v6.2c0,0.2-0.1,0.3-0.3,0.3h-3.1
	C93.3,93.6,93.2,93.5,93.2,93.3z"/>
<g>
	<rect x="93.6" y="87.2" fill="none" width="2.4" height="6.1"/>
	
		<text transform="matrix(4.489659e-11 1 -1 4.489659e-11 95.5498 87.2374)" fill="#54A3DA" font-family="'HelvNeueMediumforIBM'" font-size="0.6491">Learns how to create </text>
	
		<text transform="matrix(4.489659e-11 1 -1 4.489659e-11 94.7702 87.2374)" fill="#54A3DA" font-family="'HelvNeueMediumforIBM'" font-size="0.6491">dictionary using a </text>
	
		<text transform="matrix(4.489659e-11 1 -1 4.489659e-11 93.9925 87.2374)" fill="#54A3DA" font-family="'HelvNeueMediumforIBM'" font-size="0.6491">spreadsheet.</text>
</g>
<line fill="none" stroke="#FFFFFF" stroke-width="5" stroke-miterlimit="10" x1="95.2" y1="93.6" x2="95.2" y2="95.4"/>
<path fill="#FFFFFF" d="M93.2,101.8v-6.2c0-0.2,0.1-0.3,0.3-0.3h3.1c0.2,0,0.3,0.1,0.3,0.3v6.2c0,0.2-0.1,0.3-0.3,0.3h-3.1
	C93.3,102.1,93.2,102,93.2,101.8z"/>
<g>
	<rect x="93.9" y="95.9" fill="none" width="2.1" height="5.9"/>
	
		<text transform="matrix(4.489659e-11 1 -1 4.489659e-11 95.5922 95.8572)" fill="#54A3DA" font-family="'HelvNeueMediumforIBM'" font-size="0.6491">Downloads </text>
	
		<text transform="matrix(4.489659e-11 1 -1 4.489659e-11 94.8126 95.8572)" fill="#54A3DA" font-family="'HelvNeueMediumforIBM'" font-size="0.6491">template </text>
	
		<text transform="matrix(4.489659e-11 1 -1 4.489659e-11 94.0339 95.8572)" fill="#54A3DA" font-family="'HelvNeueMediumforIBM'" font-size="0.6491">spreadsheet</text>
</g>
<line fill="none" stroke="#FFFFFF" stroke-width="5" stroke-miterlimit="10" x1="95.2" y1="102.1" x2="95.2" y2="103.9"/>
<path fill="#FFFFFF" d="M93.2,110.3v-6.2c0-0.2,0.1-0.3,0.3-0.3h3.1c0.2,0,0.3,0.1,0.3,0.3v6.2c0,0.2-0.1,0.3-0.3,0.3h-3.1
	C93.3,110.6,93.2,110.5,93.2,110.3z"/>
<g>
	<rect x="93.9" y="104.4" fill="none" width="2.1" height="5.9"/>
	
		<text transform="matrix(4.489659e-11 1 -1 4.489659e-11 95.5922 104.3604)" fill="#54A3DA" font-family="'HelvNeueMediumforIBM'" font-size="0.6491">Add terms to the </text>
	
		<text transform="matrix(4.489659e-11 1 -1 4.489659e-11 94.8126 104.3604)" fill="#54A3DA" font-family="'HelvNeueMediumforIBM'" font-size="0.6491">spreadsheet</text>
</g>
<line fill="none" stroke="#FFFFFF" stroke-width="5" stroke-miterlimit="10" x1="95.2" y1="110.6" x2="95.2" y2="112.4"/>
<path fill="#FFFFFF" d="M93.2,118.8v-6.2c0-0.2,0.1-0.3,0.3-0.3h3.1c0.2,0,0.3,0.1,0.3,0.3v6.2c0,0.2-0.1,0.3-0.3,0.3h-3.1
	C93.3,119.1,93.2,119,93.2,118.8z"/>
<g>
	<rect x="93.9" y="112.9" fill="none" width="2.1" height="5.9"/>
	
		<text transform="matrix(4.489659e-11 1 -1 4.489659e-11 95.5922 112.8649)" fill="#54A3DA" font-family="'HelvNeueMediumforIBM'" font-size="0.6491">Uploads new </text>
	
		<text transform="matrix(4.489659e-11 1 -1 4.489659e-11 94.8126 112.8649)" fill="#54A3DA" font-family="'HelvNeueMediumforIBM'" font-size="0.6491">spreadsheet</text>
</g>
<line fill="none" stroke="#FFFFFF" stroke-width="5" stroke-miterlimit="10" x1="95.2" y1="119.1" x2="95.2" y2="120.9"/>
<path fill="#FFFFFF" d="M93.2,127.3v-6.2c0-0.2,0.1-0.3,0.3-0.3h3.1c0.2,0,0.3,0.1,0.3,0.3v6.2c0,0.2-0.1,0.3-0.3,0.3h-3.1
	C93.3,127.6,93.2,127.5,93.2,127.3z"/>
<g>
	<rect x="93.9" y="121.4" fill="none" width="2.1" height="5.9"/>
	
		<text transform="matrix(4.489659e-11 1 -1 4.489659e-11 95.5922 121.368)" fill="#54A3DA" font-family="'HelvNeueMediumforIBM'" font-size="0.6491">Sees errors from </text>
	
		<text transform="matrix(4.489659e-11 1 -1 4.489659e-11 94.8126 121.368)" fill="#54A3DA" font-family="'HelvNeueMediumforIBM'" font-size="0.6491">specific terms</text>
</g>
<path fill="#FFFFFF" d="M93.1,131l1.6-1.6c0.2-0.2,0.4-0.2,0.6,0L97,131c0.2,0.2,0.2,0.4,0,0.6l-1.6,1.6c-0.2,0.2-0.4,0.2-0.6,0
	l-1.6-1.6C92.9,131.4,92.9,131.1,93.1,131z"/>
<rect x="93.6" y="129.6" fill="none" width="2.1" height="3.3"/>
<text transform="matrix(4.489659e-11 1 -1 4.489659e-11 95.2447 130.4874)" fill="#54A3DA" font-family="'HelvNeueMediumforIBM'" font-size="0.6491">Good </text>
<text transform="matrix(4.489659e-11 1 -1 4.489659e-11 94.4661 130.0331)" fill="#54A3DA" font-family="'HelvNeueMediumforIBM'" font-size="0.6491">enough?</text>
<g>
	<g>
		<line fill="none" stroke="#FFFFFF" stroke-width="5" stroke-miterlimit="10" x1="93.1" y1="131.3" x2="90.8" y2="131.3"/>
		<g>
			<polygon fill="#FFFFFF" points="91,130.8 90.2,131.3 91,131.8 			"/>
		</g>
	</g>
</g>
<g>
	<g>
		<line fill="none" stroke="#FFFFFF" stroke-width="5" stroke-miterlimit="10" x1="95" y1="133.2" x2="95" y2="135.1"/>
		<g>
			<polygon fill="#FFFFFF" points="94.5,135 95,135.8 95.5,135 			"/>
		</g>
	</g>
</g>
<rect x="91.8" y="131.7" fill="none" width="0.7" height="1.1"/>
<text transform="matrix(4.489659e-11 1 -1 4.489659e-11 92.0482 131.88)" fill="#FFFFFF" font-family="'HelvNeueMediumforIBM'" font-size="0.5555">No</text>
<rect x="95.3" y="133.9" fill="none" width="0.4" height="0.9"/>
<text transform="matrix(4.489659e-11 1 -1 4.489659e-11 95.3756 133.8534)" fill="#FFFFFF" font-family="'HelvNeueMediumforIBM'" font-size="0.5555">Ye</text>
<line fill="none" stroke="#FFFFFF" stroke-width="5" stroke-miterlimit="10" x1="95.1" y1="127.6" x2="95.1" y2="129.2"/>
<path fill="#FFFFFF" d="M93.2,142.3v-6.2c0-0.2,0.1-0.3,0.3-0.3h3.1c0.2,0,0.3,0.1,0.3,0.3v6.2c0,0.2-0.1,0.3-0.3,0.3h-3.1
	C93.3,142.6,93.2,142.5,93.2,142.3z"/>
<g>
	<rect x="94" y="136.4" fill="none" width="1.8" height="5.7"/>
	
		<text transform="matrix(4.489659e-11 1 -1 4.489659e-11 95.3041 136.3669)" fill="#54A3DA" font-family="'HelvNeueMediumforIBM'" font-size="0.6491">Tests MT model</text>
</g>
<line fill="none" stroke="#FFFFFF" stroke-width="5" stroke-miterlimit="10" x1="95.1" y1="142.7" x2="95.1" y2="144.3"/>
<path fill="#FFFFFF" d="M93.1,146l1.6-1.6c0.2-0.2,0.4-0.2,0.6,0L97,146c0.2,0.2,0.2,0.4,0,0.6l-1.6,1.6c-0.2,0.2-0.4,0.2-0.6,0
	l-1.6-1.6C92.9,146.4,92.9,146.1,93.1,146z"/>
<rect x="93.6" y="144.6" fill="none" width="2.1" height="3.3"/>
<text transform="matrix(4.489659e-11 1 -1 4.489659e-11 95.2447 145.048)" fill="#54A3DA" font-family="'HelvNeueMediumforIBM'" font-size="0.6491">Satisfies</text>
<text transform="matrix(4.489659e-11 1 -1 4.489659e-11 94.4661 144.8201)" fill="#54A3DA" font-family="'HelvNeueMediumforIBM'" font-size="0.6491">use case?</text>
<g>
	<g>
		<line fill="none" stroke="#FFFFFF" stroke-width="5" stroke-miterlimit="10" x1="105.9" y1="146.3" x2="97.1" y2="146.3"/>
		<g>
			<polygon fill="#FFFFFF" points="105.8,145.8 106.6,146.3 105.8,146.8 			"/>
		</g>
	</g>
</g>
<rect x="91.3" y="146.6" fill="none" width="0.7" height="1.1"/>
<text transform="matrix(4.489659e-11 1 -1 4.489659e-11 91.5294 146.78)" fill="#FFFFFF" font-family="'HelvNeueMediumforIBM'" font-size="0.5555">No</text>
<rect x="98.1" y="146.7" fill="none" width="0.4" height="0.9"/>
<text transform="matrix(4.489659e-11 1 -1 4.489659e-11 98.1768 146.6943)" fill="#FFFFFF" font-family="'HelvNeueMediumforIBM'" font-size="0.5555">Ye</text>
<path fill="#FFFFFF" d="M86.5,134.4v-6.2c0-0.2,0.1-0.3,0.3-0.3h3.1c0.2,0,0.3,0.1,0.3,0.3v6.2c0,0.2-0.1,0.3-0.3,0.3h-3.1
	C86.6,134.7,86.5,134.5,86.5,134.4z"/>
<g>
	<rect x="87.2" y="128.4" fill="none" width="2.1" height="5.9"/>
	
		<text transform="matrix(4.489659e-11 1 -1 4.489659e-11 88.8837 128.4442)" fill="#54A3DA" font-family="'HelvNeueMediumforIBM'" font-size="0.6491">Modifies </text>
	
		<text transform="matrix(4.489659e-11 1 -1 4.489659e-11 88.1059 128.4442)" fill="#54A3DA" font-family="'HelvNeueMediumforIBM'" font-size="0.6491">spreadsheet</text>
</g>
<g>
	<g>
		<polyline fill="none" stroke="#FFFFFF" stroke-width="5" stroke-miterlimit="10" points="88.3,127.9 88.3,115.6 92.5,115.6 		"/>
		<g>
			<polygon fill="#FFFFFF" points="92.3,116.1 93.2,115.6 92.3,115.1 			"/>
		</g>
	</g>
</g>
<g>
	<g>
		<polyline fill="none" stroke="#FFFFFF" stroke-width="5" stroke-miterlimit="10" points="97.1,83.1 107.6,83.1 107.6,142.1 		"/>
		<g>
			<polygon fill="#FFFFFF" points="107,142 107.5,142.8 108,142 			"/>
		</g>
	</g>
</g>
<g>
	<g>
		<polyline fill="none" stroke="#FFFFFF" stroke-width="5" stroke-miterlimit="10" points="93.1,146.3 88.3,146.3 88.3,135.4 		"/>
		<g>
			<polygon fill="#FFFFFF" points="88.7,135.5 88.3,134.7 87.8,135.5 			"/>
		</g>
	</g>
</g>
<line fill="none" stroke="#FFFFFF" stroke-width="5" stroke-miterlimit="10" x1="108.4" y1="149.6" x2="108.4" y2="152.5"/>
<g>
	<path fill="#FFFFFF" d="M93.2,21.5v-6.2c0-0.2,0.1-0.3,0.3-0.3h3.1c0.2,0,0.3,0.1,0.3,0.3v6.2c0,0.2-0.1,0.3-0.3,0.3h-3.1
		C93.3,21.8,93.2,21.7,93.2,21.5z"/>
	<g>
		<rect x="94" y="15.5" fill="none" width="1.8" height="5.7"/>
		
			<text transform="matrix(4.489659e-11 1 -1 4.489659e-11 95.3041 15.5337)" fill="#3FA9F5" font-family="'HelvNeueMediumforIBM'" font-size="0.6491">Tests existing  MT </text>
		
			<text transform="matrix(4.489659e-11 1 -1 4.489659e-11 94.5254 15.5337)" fill="#3FA9F5" font-family="'HelvNeueMediumforIBM'" font-size="0.6491">models</text>
		
			<text transform="matrix(4.489659e-11 1 -1 4.489659e-11 94.0575 15.5337)" fill="#3FA9F5" font-family="'HelvNeueMediumforIBM'" font-size="0.3895">(WDC website)</text>
	</g>
</g>
<path fill="#FFFFFF" d="M93,25.4l1.6-1.6c0.2-0.2,0.4-0.2,0.6,0l1.6,1.6c0.2,0.2,0.2,0.4,0,0.6l-1.6,1.6c-0.2,0.2-0.4,0.2-0.6,0
	L93,26C92.9,25.9,92.9,25.6,93,25.4z"/>
<rect x="93.5" y="24.1" fill="none" width="2.1" height="3.3"/>
<text transform="matrix(4.489659e-11 1 -1 4.489659e-11 95.1807 24.5029)" fill="#54A3DA" font-family="'HelvNeueMediumforIBM'" font-size="0.6491">Satisfies</text>
<text transform="matrix(4.489659e-11 1 -1 4.489659e-11 94.4011 24.2755)" fill="#54A3DA" font-family="'HelvNeueMediumforIBM'" font-size="0.6491">use case?</text>
<g>
	<g>
		<line fill="none" stroke="#FFFFFF" stroke-width="5" stroke-miterlimit="10" x1="95" y1="27.7" x2="95" y2="28.8"/>
		<g>
			<polygon fill="#FFFFFF" points="94.5,28.6 94.9,29.5 95.4,28.6 			"/>
		</g>
	</g>
</g>
<rect x="95" y="27.6" fill="none" width="0.7" height="1.1"/>
<text transform="matrix(4.489659e-11 1 -1 4.489659e-11 95.2307 27.8294)" fill="#FFFFFF" font-family="'HelvNeueMediumforIBM'" font-size="0.5555">No</text>
<rect x="98.1" y="26.1" fill="none" width="0.4" height="0.9"/>
<text transform="matrix(4.489659e-11 1 -1 4.489659e-11 98.1118 26.1492)" fill="#FFFFFF" font-family="'HelvNeueMediumforIBM'" font-size="0.5555">Ye</text>
<line fill="none" stroke="#FFFFFF" stroke-width="5" stroke-miterlimit="10" x1="95" y1="21.8" x2="95" y2="24.1"/>
<g>
	<g>
		<polyline fill="none" stroke="#FFFFFF" stroke-width="5" stroke-miterlimit="10" points="109.1,142.1 109.1,25.7 96.9,25.7 		"/>
		<g>
			<polygon fill="#FFFFFF" points="109.6,142 109.1,142.8 108.6,142 			"/>
		</g>
	</g>
</g>
<line fill="none" stroke="#FFFFFF" stroke-width="5" stroke-miterlimit="10" x1="95.2" y1="36.3" x2="95.2" y2="38"/>
</svg>
